<?xml version="1.0" standalone="no"?>
<!DOCTYPE svg PUBLIC "-//W3C//DTD SVG 20010904//EN"
 "http://www.w3.org/TR/2001/REC-SVG-20010904/DTD/svg10.dtd">
<svg version="1.0" xmlns="http://www.w3.org/2000/svg"
 width="16.000000pt" height="16.000000pt" viewBox="0 0 16.000000 16.000000"
 preserveAspectRatio="xMidYMid meet">
<metadata>
Created by potrace 1.11, written by Peter Selinger 2001-2013
</metadata>
<g transform="translate(0.000000,16.000000) scale(0.003125,-0.003125)"
fill="#000000" stroke="none">
<path d="M2408 5115 c-2 -1 -41 -5 -87 -9 -46 -4 -94 -8 -105 -11 -12 -2 -39
-6 -61 -9 -101 -13 -263 -52 -395 -96 -970 -322 -1649 -1175 -1748 -2195 -13
-141 -5 -495 14 -589 5 -26 10 -57 19 -116 28 -186 125 -474 233 -685 332
-655 934 -1140 1635 -1319 115 -30 179 -42 302 -61 172 -26 532 -26 690 0 48
8 87 14 130 21 77 11 305 74 402 110 741 276 1303 856 1553 1604 30 90 72 254
85 330 3 19 10 60 15 90 30 168 33 539 5 728 -11 72 -14 90 -30 171 -24 121
-77 300 -128 426 -236 587 -664 1054 -1227 1339 -203 103 -499 204 -680 231
-25 4 -52 9 -60 10 -9 2 -43 6 -75 10 -33 4 -69 9 -80 12 -23 5 -402 13 -407
8z m317 -660 c53 -25 149 -118 872 -842 447 -447 825 -832 839 -855 34 -53 55
-128 55 -193 -1 -69 -8 -99 -38 -164 -22 -49 -134 -164 -852 -882 -945 -946
-872 -884 -1046 -884 -174 1 -102 -60 -1041 879 -939 939 -879 868 -879 1041
0 174 -62 101 884 1046 454 455 842 834 861 844 73 36 114 45 200 42 68 -3 97
-9 145 -32z"/>
<path d="M2512 3798 c-149 -22 -273 -137 -308 -285 -73 -311 259 -566 540
-415 264 142 260 527 -7 664 -57 29 -162 46 -225 36z"/>
<path d="M1598 2915 c-172 -46 -285 -203 -276 -385 12 -262 295 -423 532 -303
85 43 175 150 194 231 8 36 9 159 1 198 -16 74 -82 167 -152 211 -87 55 -204
73 -299 48z"/>
<path d="M3317 2916 c-197 -57 -313 -274 -254 -476 64 -217 324 -328 529 -224
279 141 274 544 -9 676 -78 37 -186 46 -266 24z"/>
<path d="M2436 2029 c-328 -132 -319 -584 13 -696 234 -78 473 90 480 338 4
153 -71 276 -209 342 -55 27 -78 32 -150 34 -65 1 -97 -3 -134 -18z"/>
</g>
</svg>
